<?xml version="1.0" standalone="no"?>
<!DOCTYPE svg PUBLIC "-//W3C//DTD SVG 20010904//EN"
 "http://www.w3.org/TR/2001/REC-SVG-20010904/DTD/svg10.dtd">
<svg version="1.0" xmlns="http://www.w3.org/2000/svg"
 width="538.000000pt" height="294.000000pt" viewBox="0 0 538.000000 294.000000"
 preserveAspectRatio="xMidYMid meet">

<g transform="translate(0.000000,294.000000) scale(0.100000,-0.100000)"
fill="#000000" stroke="none">
<path d="M440 2923 c0 -10 6 -81 15 -158 8 -77 22 -212 30 -300 9 -88 23 -218
31 -290 7 -71 15 -150 16 -174 2 -44 2 -45 -40 -59 -51 -17 -55 -32 -8 -32 18
0 54 -3 80 -6 47 -7 47 -7 40 20 -3 15 -2 26 4 26 6 0 5 18 -3 48 -8 26 -21
117 -29 202 -9 85 -22 225 -31 310 -20 199 -20 246 1 254 9 3 13 13 10 23 -2
10 -7 48 -11 86 l-7 67 -49 0 c-40 0 -49 -3 -49 -17z"/>
<path d="M1223 2818 c3 -68 10 -177 16 -243 5 -66 12 -176 15 -245 2 -69 8
-133 11 -142 5 -13 2 -18 -8 -18 -9 0 -60 -14 -114 -30 -152 -47 -181 -56
-293 -89 -58 -17 -118 -36 -135 -42 -16 -7 -45 -14 -62 -16 -37 -6 -37 -5 -23
-54 13 -46 26 -49 210 -49 141 0 154 2 256 51 33 15 63 19 159 19 65 0 116 3
112 6 -5 5 -60 12 -114 14 -7 0 -13 9 -13 21 0 11 -4 17 -10 14 -20 -13 -9 14
12 29 l22 16 -23 0 c-14 0 -21 3 -17 8 4 4 56 8 114 9 155 2 142 -2 129 33 -6
17 -15 30 -19 30 -4 0 -11 18 -14 41 -5 27 -11 38 -20 35 -7 -3 -32 -10 -55
-16 l-42 -11 6 -55 c3 -30 2 -54 -4 -54 -5 0 -9 37 -9 83 0 45 -5 136 -10 202
-17 215 -23 325 -29 553 -1 17 -7 22 -27 22 l-27 0 6 -122z"/>
<path d="M1491 2924 c0 -11 3 -14 6 -6 3 7 2 16 -1 19 -3 4 -6 -2 -5 -13z"/>
<path d="M1723 2868 c3 -59 7 -74 21 -76 15 -3 17 5 14 70 -3 60 -6 73 -21 76
-16 3 -17 -4 -14 -70z"/>
<path d="M1917 2900 c3 -28 1 -40 -6 -35 -6 3 -14 -1 -17 -9 -3 -9 -12 -16
-20 -16 -8 0 -23 -9 -33 -19 -11 -11 -21 -18 -23 -16 -1 2 -12 -9 -22 -23 -17
-22 -17 -25 -3 -19 9 3 17 2 17 -4 0 -5 -7 -12 -15 -15 -8 -4 -12 -10 -9 -16
3 -5 -2 -15 -12 -23 -11 -7 -16 -17 -12 -20 4 -4 23 7 41 25 25 23 33 38 29
54 -4 20 -4 20 14 4 14 -13 18 -32 17 -73 -1 -50 1 -54 18 -44 11 5 19 13 19
17 0 5 8 17 18 28 10 10 29 39 42 64 39 72 69 100 107 100 21 0 33 5 33 14 0
7 9 16 20 19 13 3 18 11 14 20 -3 10 1 17 13 20 10 3 -21 5 -69 5 -49 0 -88
-4 -88 -9 0 -13 -54 -11 -67 2 -7 7 -9 -2 -6 -31z"/>
<path d="M2465 2924 c98 -36 241 -123 260 -160 6 -10 22 -37 36 -59 33 -51 53
-125 46 -167 -4 -18 -10 -56 -15 -85 -4 -28 -13 -57 -19 -65 -6 -7 -13 -24
-16 -38 -3 -14 -15 -50 -27 -80 -12 -30 -24 -68 -25 -85 l-3 -30 28 35 c16 19
27 42 25 51 -3 8 3 24 12 35 20 22 48 76 58 112 3 12 11 22 16 22 6 0 7 4 4
10 -3 5 -1 19 6 31 6 12 7 19 1 15 -5 -3 -8 11 -6 33 1 22 -1 55 -6 75 -5 25
-4 36 4 36 7 0 7 3 -1 8 -7 5 -15 21 -17 38 -5 42 -17 65 -28 57 -7 -4 -9 3
-4 21 8 36 17 86 10 61 -11 -37 -25 -41 -18 -5 6 34 6 34 -10 15 -16 -20 -16
-20 -12 5 2 14 8 34 12 44 7 18 8 18 21 0 12 -17 13 -17 13 2 0 11 -5 25 -12
32 -9 9 -7 16 7 32 l18 20 -199 -1 c-186 0 -196 -1 -159 -15z"/>
<path d="M2894 2923 c4 -9 12 -49 18 -90 l11 -74 271 6 c367 8 607 33 771 80
100 29 180 57 210 73 28 16 10 17 -369 20 -220 1 -401 0 -403 -2 -3 -2 -8 -35
-13 -72 -5 -37 -14 -70 -21 -75 -7 -4 -51 -8 -97 -8 -76 -1 -83 1 -77 17 3 9
10 37 15 62 5 25 12 53 15 63 7 16 -5 17 -165 17 -156 0 -172 -2 -166 -17z"/>
<path d="M5214 2888 l7 -51 -193 7 c-600 20 -578 20 -578 4 0 -19 69 -25 420
-33 129 -3 297 -8 373 -12 120 -5 137 -4 137 10 0 11 -14 17 -52 22 -81 10
-98 21 -98 67 0 21 -5 38 -11 38 -8 0 -9 -16 -5 -52z"/>
<path d="M5259 2933 c-1 -5 -1 -16 0 -25 1 -10 -3 -18 -10 -18 -7 0 -2 -9 11
-20 25 -22 45 -26 55 -10 4 6 11 7 17 4 6 -4 8 -2 4 4 -3 5 0 13 6 15 8 3 6 6
-4 6 -10 1 -18 -4 -18 -9 0 -6 -7 -6 -19 2 -23 14 -16 38 10 38 10 0 19 5 19
10 0 11 -69 14 -71 3z"/>
<path d="M162 2880 c0 -14 2 -19 5 -12 2 6 2 18 0 25 -3 6 -5 1 -5 -13z"/>
<path d="M1855 2890 c-3 -5 -1 -10 4 -10 6 0 11 5 11 10 0 6 -2 10 -4 10 -3 0
-8 -4 -11 -10z"/>
<path d="M1590 2875 c0 -8 2 -15 4 -15 2 0 6 7 10 15 3 8 1 15 -4 15 -6 0 -10
-7 -10 -15z"/>
<path d="M1043 2815 c0 -22 2 -30 4 -17 2 12 2 30 0 40 -3 9 -5 -1 -4 -23z"/>
<path d="M1502 2795 c0 -16 2 -22 5 -12 2 9 2 23 0 30 -3 6 -5 -1 -5 -18z"/>
<path d="M4706 2781 c-5 -8 -3 -17 5 -22 18 -11 26 -11 34 1 3 6 0 10 -9 10
-8 0 -16 5 -18 12 -3 9 -6 9 -12 -1z"/>
<path d="M4890 2778 c0 -9 -3 -18 -7 -20 -5 -1 -18 -17 -30 -35 -27 -38 -32
-113 -8 -113 8 0 15 7 15 15 0 8 8 15 18 15 9 0 13 4 7 8 -9 7 -12 34 -5 57 2
6 4 15 5 20 0 6 5 20 9 33 4 13 5 26 2 29 -3 4 -6 -1 -6 -9z"/>
<path d="M171 2754 c0 -11 3 -14 6 -6 3 7 2 16 -1 19 -3 4 -6 -2 -5 -13z"/>
<path d="M2115 2760 c-24 -5 -26 -8 -13 -14 9 -4 24 -9 33 -10 9 -1 29 -14 45
-29 15 -15 38 -27 49 -27 13 0 21 -6 21 -16 0 -10 6 -14 15 -10 9 3 15 0 15
-10 0 -9 14 -21 30 -27 17 -6 30 -15 30 -20 0 -4 5 -5 10 -2 6 3 10 16 10 28
0 25 -48 62 -106 82 -20 7 -39 16 -43 22 -8 12 -54 43 -61 42 -3 -1 -18 -5
-35 -9z"/>
<path d="M4922 2750 c0 -14 2 -19 5 -12 2 6 2 18 0 25 -3 6 -5 1 -5 -13z"/>
<path d="M4395 2739 c-4 -6 -5 -12 -2 -15 2 -3 7 2 10 11 7 17 1 20 -8 4z"/>
<path d="M1051 2668 c14 -94 18 -105 13 -33 -3 39 -9 74 -13 78 -5 5 -5 -16 0
-45z"/>
<path d="M4911 2684 c0 -11 3 -14 6 -6 3 7 2 16 -1 19 -3 4 -6 -2 -5 -13z"/>
<path d="M1558 2683 c7 -3 16 -2 19 1 4 3 -2 6 -13 5 -11 0 -14 -3 -6 -6z"/>
<path d="M5053 2683 c-36 -5 -93 -66 -93 -100 0 -10 -9 -36 -21 -58 -24 -46
-42 -68 -37 -45 2 9 -3 14 -11 12 -8 -2 -18 3 -22 10 -7 10 -9 10 -9 -2 -1
-35 -20 16 -20 55 -1 35 -2 37 -11 17 -5 -14 -5 -39 1 -65 8 -35 7 -44 -7 -54
-9 -7 -24 -13 -34 -13 -9 0 -22 -7 -29 -15 -10 -12 -9 -15 6 -15 15 0 14 -4
-9 -28 -21 -22 -24 -31 -15 -40 8 -8 8 -12 1 -12 -14 0 -34 25 -28 34 3 3 -1
2 -7 -4 -22 -18 -33 -11 -77 49 -50 70 -65 77 -100 54 -45 -29 -131 -123 -131
-143 0 -22 29 -27 47 -9 19 19 233 17 233 -2 0 -6 -17 -34 -37 -61 -30 -41
-50 -57 -115 -86 -80 -36 -94 -50 -58 -59 11 -3 17 -9 14 -14 -3 -5 0 -9 7 -9
9 0 8 -4 -1 -15 -10 -11 -4 -11 31 3 23 9 68 43 101 75 32 31 61 57 63 57 11
0 4 -25 -12 -42 -24 -27 2 -23 52 7 22 14 47 28 55 31 41 16 59 28 54 35 -3 5
2 6 11 3 8 -4 37 -1 63 6 26 7 83 16 127 19 l80 7 -37 17 c-58 26 -49 41 20
32 102 -12 145 -11 150 4 3 8 0 11 -7 7 -6 -4 -11 -1 -11 8 0 11 -9 16 -27 16
-44 0 -137 28 -149 45 -8 10 -29 15 -67 15 -49 0 -56 2 -54 20 1 12 12 23 29
29 37 13 36 22 -2 14 -25 -5 -29 -3 -24 11 3 9 10 13 15 10 5 -3 6 1 3 9 -3 8
6 27 19 43 l24 28 42 -22 c23 -12 47 -22 54 -22 19 1 50 50 50 80 0 29 -32 80
-48 78 -5 -1 -24 -3 -42 -5z m-78 -373 c3 -5 -3 -10 -14 -10 -11 0 -23 5 -26
10 -3 6 3 10 14 10 11 0 23 -4 26 -10z m-235 -92 c0 -6 -7 -5 -15 2 -8 7 -15
17 -15 22 0 6 7 5 15 -2 8 -7 15 -17 15 -22z"/>
<path d="M1826 2645 c-9 -26 -7 -32 5 -12 6 10 9 21 6 23 -2 3 -7 -2 -11 -11z"/>
<path d="M2098 2643 c6 -2 18 -2 25 0 6 3 1 5 -13 5 -14 0 -19 -2 -12 -5z"/>
<path d="M2080 2614 c0 -13 35 -33 57 -34 12 0 28 -7 36 -15 8 -8 17 -11 20
-8 3 3 24 -9 47 -27 26 -21 40 -27 40 -17 0 15 -34 50 -41 42 -3 -2 -5 5 -6
15 -1 11 2 20 8 20 5 0 9 -7 9 -16 0 -8 5 -12 11 -9 6 4 13 -2 16 -14 3 -12
12 -21 21 -21 13 0 12 4 -4 23 -32 38 -47 47 -70 41 -13 -3 -32 1 -46 10 -22
15 -98 23 -98 10z"/>
<path d="M3893 2613 c-7 -2 -13 -11 -13 -19 0 -13 14 -14 85 -8 61 5 89 3 99
-6 10 -7 28 -9 48 -5 58 12 68 16 68 31 0 11 -24 14 -137 13 -76 0 -144 -3
-150 -6z"/>
<path d="M3040 2603 c-78 -5 -111 -14 -107 -26 2 -8 41 -12 120 -13 94 -2 117
1 121 13 13 33 -3 36 -134 26z"/>
<path d="M1757 2570 c3 -11 9 -20 13 -20 5 0 6 9 3 20 -3 11 -9 20 -13 20 -5
0 -6 -9 -3 -20z"/>
<path d="M1672 2518 c-16 -36 -27 -48 -43 -48 -22 0 -75 -49 -77 -72 -1 -7 -8
-44 -16 -83 -18 -84 -20 -188 -5 -218 l12 -21 8 22 c5 12 13 22 18 22 13 0 20
-74 7 -82 -7 -5 -7 -8 2 -8 10 0 9 -4 -3 -16 -18 -19 -16 -23 13 -29 27 -5 82
56 82 90 0 13 5 27 11 30 6 4 14 16 18 28 5 14 12 -7 21 -72 9 -56 19 -95 27
-98 7 -3 13 -13 13 -23 0 -32 33 -84 97 -149 34 -35 63 -67 63 -70 0 -8 90
-48 126 -56 16 -4 36 -9 44 -12 16 -6 27 -9 48 -11 7 -1 11 -6 7 -11 -3 -5 7
-3 23 4 15 8 37 16 48 18 10 2 28 8 39 13 17 9 31 10 50 5 10 -3 -128 -184
-162 -211 -61 -49 -103 -61 -158 -45 -5 1 -13 3 -18 4 -4 0 -21 8 -38 17 -26
13 -33 14 -41 2 -8 -10 -9 -10 -5 2 5 18 -11 27 -193 113 -29 14 -97 74 -189
166 -80 80 -142 138 -139 129 5 -13 -2 -16 -39 -16 -31 -1 -50 -7 -59 -19 -12
-17 -13 -16 -15 7 -1 17 -3 20 -6 8 -2 -10 -9 -18 -14 -18 -6 0 -8 -4 -5 -9 3
-5 -3 -20 -14 -32 -18 -23 -19 -23 -21 -4 -1 11 -2 26 -2 33 1 6 -3 12 -7 12
-5 0 -12 9 -15 20 -10 32 -95 21 -95 -12 0 -9 3 -9 12 0 15 15 58 16 58 2 0
-5 7 -10 15 -10 9 0 12 -6 9 -15 -4 -8 -10 -12 -15 -9 -5 2 -17 1 -26 -4 -25
-13 -111 -23 -92 -11 9 5 9 9 2 9 -20 0 -24 -19 -6 -29 19 -10 25 -11 46 -11
7 0 22 -7 33 -16 18 -15 18 -15 -3 -5 -27 14 -36 14 -28 1 4 -6 -12 -1 -34 11
-22 11 -44 18 -50 15 -5 -3 -12 1 -15 10 -5 14 -9 14 -23 3 -14 -12 -16 -12
-8 0 6 11 4 13 -8 8 -10 -3 -17 -2 -17 3 0 5 8 10 18 13 9 2 0 4 -20 3 l-38
-1 23 -17 c12 -10 26 -18 30 -18 5 0 6 -4 2 -9 -3 -5 0 -13 6 -17 8 -4 9 -3 5
4 -12 20 8 13 34 -12 53 -49 85 -92 88 -116 2 -24 42 -70 51 -60 8 8 20 -63
14 -75 -4 -5 -3 -7 2 -3 10 9 37 -11 30 -22 -3 -4 2 -10 10 -14 8 -3 15 -1 15
5 0 6 7 4 15 -5 18 -17 20 -30 4 -20 -7 4 -10 1 -7 -6 2 -7 12 -14 21 -16 9
-1 29 -8 44 -16 25 -12 30 -12 46 5 19 19 55 15 69 -6 4 -7 12 -6 24 4 10 8
15 9 11 3 -6 -11 26 -28 46 -25 5 1 6 -3 2 -8 -6 -11 29 -34 39 -24 3 3 14 -2
25 -11 11 -10 20 -13 22 -7 3 7 14 6 32 -4 15 -8 34 -12 42 -8 8 3 15 0 15 -7
0 -10 4 -9 16 1 13 10 17 10 25 -2 6 -10 9 -10 9 -1 0 6 9 12 20 12 11 0 20
-4 20 -8 0 -13 38 -11 50 3 17 20 -16 34 -89 37 -35 1 -65 6 -67 10 -3 4 -20
8 -39 8 -21 0 -37 6 -43 16 -5 9 -13 16 -18 15 -19 -1 -89 23 -96 34 -5 6 -8
6 -9 0 0 -5 -4 1 -8 15 -4 15 -14 24 -24 24 -9 -1 -14 2 -11 7 3 5 -6 9 -20 9
-14 0 -28 5 -31 10 -4 6 -3 10 2 9 20 -3 25 2 13 15 -6 8 -17 13 -23 10 -7 -2
-17 4 -24 14 -10 18 -9 19 27 12 20 -4 48 -16 60 -28 12 -11 29 -18 38 -15 10
4 13 2 8 -5 -5 -8 0 -12 13 -12 11 0 22 -4 26 -10 3 -5 13 -6 22 -3 12 5 14 3
8 -7 -6 -10 -4 -12 7 -8 8 4 33 -4 54 -18 22 -13 48 -24 60 -24 11 0 24 -3 27
-6 7 -8 78 -14 161 -14 39 0 65 5 76 15 15 14 20 13 44 -10 15 -14 31 -23 36
-20 10 6 76 -21 85 -35 3 -5 -3 -10 -13 -10 -11 0 -23 7 -26 16 -8 20 -26 8
-26 -17 0 -13 -11 -25 -30 -33 -17 -7 -27 -15 -23 -19 12 -13 54 -7 59 8 4 8
17 15 29 15 13 0 39 14 57 30 18 17 36 30 40 30 11 0 10 -18 -2 -25 -5 -3 -10
-19 -10 -35 0 -15 -6 -30 -12 -33 -10 -4 -10 -7 -1 -17 10 -11 14 -10 19 3 7
19 34 23 34 6 0 -7 -7 -17 -15 -23 -12 -9 -13 -18 -5 -48 10 -35 12 -36 48
-31 20 3 42 12 48 19 14 17 35 18 29 2 -2 -7 -6 -33 -9 -56 -2 -24 -7 -46 -10
-49 -3 -3 -1 -14 4 -24 7 -12 6 -19 -3 -22 -7 -3 -5 -6 6 -6 9 -1 17 -6 17
-12 0 -5 -6 -7 -12 -3 -10 6 -10 5 -1 -8 10 -11 11 -28 4 -64 -6 -30 -6 -53 0
-58 5 -6 2 -17 -7 -28 -9 -9 -16 -28 -16 -42 0 -14 -6 -27 -13 -30 -7 -2 -15
-20 -18 -40 -3 -20 -15 -48 -27 -63 -11 -14 -17 -29 -12 -32 13 -8 13 -71 1
-71 -18 0 -5 -42 16 -54 11 -6 22 -12 24 -13 2 -2 -4 -12 -14 -24 -15 -15 -16
-22 -7 -28 7 -4 12 -12 11 -17 -5 -28 3 -44 22 -44 l20 0 -21 -29 c-13 -20
-17 -32 -9 -36 5 -4 8 -13 5 -20 -2 -7 3 -16 12 -20 15 -6 15 -8 -3 -15 -14
-6 -15 -9 -5 -9 9 -1 21 4 28 11 9 9 12 7 12 -10 0 -17 -6 -22 -24 -22 -44 0
-42 -44 4 -75 22 -15 26 -23 18 -32 -6 -7 -7 -13 -2 -13 5 0 1 -7 -10 -15 -23
-17 -24 -58 -3 -79 12 -13 41 -16 139 -16 l124 0 12 52 c7 29 17 73 23 98 6
25 12 101 14 170 4 166 13 261 26 276 6 7 8 17 5 23 -4 5 10 26 30 47 28 31
37 35 44 24 8 -13 13 -13 38 2 16 10 71 21 133 28 104 11 106 11 154 -15 27
-14 55 -23 63 -20 7 2 10 0 7 -5 -5 -9 7 -14 26 -12 4 1 17 -10 29 -23 24 -26
51 -36 31 -12 -8 10 -7 19 3 33 14 19 14 19 13 -1 -1 -11 3 -19 9 -18 7 1 19
-6 29 -17 16 -18 16 -18 -9 -16 -23 3 -21 -1 22 -43 160 -153 265 -369 252
-513 -3 -32 -3 -58 -1 -58 2 0 13 10 24 22 l19 23 -6 -22 c-7 -21 -4 -23 32
-23 26 0 45 6 57 20 20 22 8 28 -15 8 -8 -7 -7 -4 3 8 18 22 23 49 7 39 -6 -3
-10 -1 -10 5 0 6 -4 9 -9 6 -5 -3 -11 1 -15 9 -4 11 1 15 17 15 25 0 67 -57
67 -90 0 -15 7 -20 25 -20 24 0 24 0 10 45 -7 25 -18 51 -23 58 -13 17 -35
165 -30 207 l4 35 12 -42 c7 -24 17 -43 22 -43 6 0 10 -6 10 -14 0 -7 7 -19
15 -26 9 -7 16 -31 16 -59 1 -29 4 -36 6 -18 2 15 8 27 13 27 13 0 23 -56 14
-82 -6 -20 -5 -21 10 -9 10 9 16 10 16 2 0 -6 -5 -11 -11 -11 -5 0 -7 -6 -3
-12 5 -9 2 -9 -9 1 -9 7 -17 10 -17 5 -1 -5 -12 5 -26 21 -15 17 -24 23 -21
14 3 -10 11 -35 18 -58 12 -40 12 -41 61 -39 26 0 48 5 48 11 0 5 6 4 14 -2 8
-7 29 -11 46 -9 l32 3 -21 27 c-15 19 -20 34 -15 52 5 20 2 26 -10 26 -9 0
-16 5 -16 12 0 20 -72 118 -83 111 -6 -4 -8 2 -5 15 4 13 2 19 -6 16 -6 -2
-19 13 -29 33 -35 75 -78 135 -61 88 7 -20 7 -20 -9 0 -8 10 -14 24 -13 30 2
5 1 7 -1 2 -6 -10 -23 -9 -23 2 0 5 -22 32 -48 60 -26 28 -48 59 -48 70 0 11
4 17 9 14 5 -3 6 -12 3 -20 -4 -9 1 -17 14 -20 11 -3 18 -9 15 -13 -3 -4 2
-13 10 -20 25 -21 17 3 -15 48 -20 26 -36 39 -45 35 -8 -3 -15 -1 -15 5 0 13
-38 23 -46 11 -3 -5 1 -9 9 -9 14 0 47 -30 47 -43 0 -12 -23 -7 -40 8 -15 13
-17 13 -17 0 0 -8 2 -13 5 -11 2 3 16 -6 30 -19 22 -21 24 -27 14 -47 l-12
-23 6 24 c5 20 3 23 -11 17 -13 -5 -16 -2 -11 9 3 10 2 13 -5 9 -13 -8 -46 26
-51 52 -2 11 -12 19 -25 19 -13 0 -23 3 -23 8 0 4 0 11 0 16 0 11 19 9 38 -3
7 -4 16 -5 19 -2 4 3 1 6 -5 6 -7 0 -12 5 -12 10 0 6 7 10 15 10 7 0 19 8 24
17 8 13 10 14 11 4 0 -8 2 -12 5 -9 11 10 -35 75 -62 89 -16 8 -33 21 -40 29
-11 13 -12 12 -13 -5 -1 -19 -2 -18 -13 3 -7 12 -15 20 -18 18 -3 -3 -5 4 -5
14 0 12 4 16 9 11 10 -10 13 -9 73 46 39 37 93 110 107 146 3 9 11 17 17 17 5
0 10 6 10 14 0 8 5 18 12 22 7 4 8 3 4 -4 -15 -25 5 -10 67 51 67 66 107 137
107 189 0 26 2 29 15 18 8 -7 15 -18 15 -25 0 -7 29 -42 64 -78 77 -78 115
-93 278 -109 113 -12 119 -11 161 10 24 12 52 22 61 22 9 0 20 8 23 18 4 9 35
45 69 80 35 35 66 72 70 84 6 20 24 21 104 3 8 -2 26 -4 40 -4 20 -1 29 -11
45 -46 11 -25 24 -45 29 -45 5 0 14 -6 20 -13 6 -7 31 -21 56 -31 115 -45 198
-84 205 -97 15 -23 92 -44 238 -66 41 -6 41 -6 26 -34 -8 -16 -7 -25 7 -40 9
-10 21 -19 27 -19 5 0 -1 9 -14 21 -23 19 -23 20 -3 14 15 -4 24 0 28 10 8 21
64 11 84 -13 7 -9 12 -11 12 -4 0 7 11 12 25 12 21 0 25 5 25 29 0 21 -6 30
-21 34 -17 5 -19 9 -9 26 6 12 15 21 20 21 6 0 10 35 10 80 0 63 -3 78 -14 74
-9 -3 -15 4 -19 22 -3 20 0 28 14 31 18 5 19 20 19 329 -1 190 -4 324 -10 324
-11 0 -49 -15 -107 -42 -29 -13 -43 -26 -43 -39 0 -10 -3 -19 -7 -19 -11 0
-90 28 -111 39 -85 45 -134 51 -223 26 -60 -17 -106 -40 -130 -64 -27 -28
-120 -106 -137 -115 -24 -14 -162 -47 -162 -40 0 3 7 31 16 63 16 58 16 60 -5
86 -11 15 -21 34 -21 41 0 8 -7 14 -16 14 -9 0 -14 6 -11 13 3 7 -1 21 -9 31
-12 18 -15 17 -41 -14 -15 -19 -33 -41 -40 -49 -22 -30 10 52 35 86 25 35 17
43 -35 35 l-33 -5 11 32 c6 17 14 31 19 31 15 0 18 41 3 56 -11 11 -18 12 -29
3 -30 -25 -64 38 -39 74 8 12 15 17 15 12 1 -6 10 1 21 14 10 13 29 24 42 25
22 1 39 36 17 36 -6 0 -8 5 -5 10 3 6 1 10 -4 10 -6 0 -11 -7 -11 -14 0 -8
-12 -21 -27 -28 -17 -9 -27 -20 -25 -31 2 -10 -3 -16 -9 -15 -16 4 -76 -96
-117 -192 -40 -96 -42 -105 -17 -106 11 0 27 -4 36 -8 9 -4 20 -6 25 -5 25 4
54 -2 54 -13 0 -6 10 -22 22 -35 l23 -24 -29 -55 c-16 -30 -33 -54 -38 -54 -5
0 -6 5 -3 10 3 6 4 10 1 10 -2 0 -14 -20 -25 -44 -27 -55 -94 -126 -120 -126
-11 0 -23 -4 -26 -10 -9 -14 -35 -13 -35 2 0 6 13 40 30 75 16 34 30 70 30 78
0 20 -69 65 -101 65 -15 0 -46 7 -70 15 -44 16 -89 13 -89 -5 0 -12 -240 -6
-249 7 -11 17 -81 35 -112 29 -16 -3 -40 -1 -54 4 -20 8 -25 6 -25 -6 0 -8 -4
-12 -10 -9 -16 10 -13 2 26 -70 19 -37 34 -68 32 -70 -2 -1 -19 14 -38 33 -19
19 -28 31 -20 27 13 -8 13 -7 0 11 -8 10 -24 27 -35 38 -11 10 -19 22 -18 27
2 4 -4 6 -12 3 -8 -4 -12 -11 -8 -18 3 -6 2 -7 -3 -3 -5 5 -9 12 -9 17 0 4
-18 25 -39 46 -23 22 -34 40 -27 42 9 3 9 7 0 18 -9 11 -8 14 5 14 9 0 16 -4
16 -9 0 -20 172 -51 281 -51 30 0 49 -5 52 -13 8 -20 276 -21 283 -2 3 8 20
19 37 25 29 11 30 13 12 21 -14 6 -5 8 30 5 l50 -5 -36 12 -36 12 17 32 c10
18 23 40 30 48 7 9 10 18 8 21 -3 3 -22 -17 -42 -45 -35 -47 -39 -49 -97 -56
-36 -4 -64 -3 -68 2 -6 10 -179 34 -228 32 -26 -2 -26 -2 7 -10 23 -5 10 -6
-40 -3 -41 3 -77 9 -80 13 -3 3 -62 7 -132 8 -126 1 -172 9 -132 23 14 6 10 8
-16 8 -19 0 -55 8 -80 17 -32 11 -75 15 -160 14 -75 -1 -108 -5 -95 -11 14 -6
8 -7 -20 -3 -22 2 -53 5 -70 5 -23 0 -27 3 -15 10 12 8 9 10 -11 10 -15 0 -32
-7 -39 -15 -7 -8 -21 -15 -31 -15 -10 0 -30 -18 -46 -39 -41 -57 -113 -103
-162 -104 -23 0 -41 -5 -41 -9 0 -5 -4 -6 -10 -3 -5 3 -10 1 -10 -4 0 -6 -9
-11 -19 -11 -11 0 -26 -7 -35 -15 -8 -8 -19 -15 -24 -15 -6 0 -13 -6 -15 -12
-4 -10 -6 -10 -6 0 -1 7 -5 11 -9 8 -14 -8 -83 14 -77 25 4 5 3 9 -2 8 -29 -5
-63 3 -63 15 0 7 -8 20 -17 27 -16 13 -17 12 -4 -3 17 -22 3 -23 -43 -4 -22 9
-37 11 -44 4 -6 -6 -12 0 -16 17 -4 17 -11 23 -19 18 -7 -4 -19 -8 -27 -9 -12
-2 -12 0 2 9 15 10 15 12 -4 29 -12 10 -25 18 -30 18 -5 0 -9 21 -8 48 1 26 1
52 0 57 -1 6 -2 12 -2 15 0 3 -14 6 -31 7 -18 2 -39 12 -51 27 -12 13 -30 26
-40 30 -15 5 -17 9 -8 18 14 14 16 32 4 24 -5 -3 -9 1 -9 9 0 8 4 15 8 15 5 0
3 11 -3 25 -6 14 -15 25 -19 25 -5 0 -6 6 -3 14 3 8 1 16 -3 19 -5 3 -6 38 -2
78 6 72 6 74 -22 100 -31 29 -35 48 -18 80 5 11 8 28 6 37 -2 11 -11 1 -25
-30z m991 -605 c-7 -2 -21 -2 -30 0 -10 3 -4 5 12 5 17 0 24 -2 18 -5z m990
-20 c-13 -2 -35 -2 -50 0 -16 2 -5 4 22 4 28 0 40 -2 28 -4z m744 -52 c-3 -16
-18 -42 -33 -57 -21 -22 -24 -24 -15 -7 6 12 11 30 11 39 0 16 27 54 38 54 2
0 2 -13 -1 -29z m-1629 -20 c12 -10 22 -26 22 -35 0 -9 6 -16 14 -16 17 0 27
-57 21 -119 l-5 -46 21 45 c11 25 31 50 44 56 21 10 25 8 36 -18 7 -16 27 -45
46 -65 19 -19 32 -41 29 -49 -3 -8 -1 -14 5 -14 6 0 7 -4 4 -10 -3 -5 0 -19 9
-31 13 -20 15 -20 19 -3 2 11 2 -1 0 -25 -3 -24 -7 -51 -9 -60 -5 -17 2 -3 49
97 16 34 31 62 33 62 2 0 3 -21 3 -47 -2 -46 -2 -47 -8 -13 -5 23 -8 0 -8 -67
-1 -79 -5 -108 -20 -130 -17 -27 -17 -27 0 -14 17 13 17 13 6 -13 -7 -14 -15
-22 -19 -16 -3 6 -19 -19 -35 -55 -16 -36 -35 -65 -41 -65 -6 0 -17 -7 -24
-15 -10 -12 -10 -15 2 -15 9 0 42 27 76 60 33 33 63 60 66 60 13 0 46 41 41
50 -4 6 -1 10 5 10 6 0 8 5 5 10 -4 6 -12 5 -21 -4 -17 -18 -18 -30 -1 -20 6
4 9 3 4 -1 -4 -5 -16 -9 -27 -10 -18 -2 -19 1 -7 19 8 12 22 46 32 76 9 30 24
72 33 92 8 20 12 44 8 53 -4 11 4 28 19 47 14 16 25 26 25 21 0 -4 5 -1 10 7
8 13 11 12 24 -5 18 -23 20 -35 6 -35 -5 0 -7 -7 -4 -15 4 -8 1 -22 -6 -30 -7
-8 -9 -15 -6 -15 4 0 4 -5 0 -11 -3 -6 -8 -32 -9 -58 -3 -57 -24 -144 -37
-152 -5 -3 -8 -10 -6 -15 1 -5 -7 -10 -19 -12 -13 -2 -23 -7 -23 -12 0 -5 13
-7 28 -4 42 8 57 -15 42 -62 -7 -20 -20 -44 -29 -53 -9 -9 -25 -28 -36 -42
-24 -31 -94 -69 -126 -69 -12 0 -30 7 -39 15 -15 14 -21 14 -51 1 -19 -9 -29
-15 -24 -16 6 0 -6 -8 -25 -17 -34 -17 -50 -31 -50 -45 0 -5 9 1 20 12 11 11
24 20 29 20 5 0 17 3 26 7 15 5 15 3 -1 -17 -11 -12 -43 -33 -73 -47 -29 -13
-51 -27 -47 -30 3 -4 12 -1 18 5 7 7 19 12 27 12 9 0 29 7 45 15 15 8 34 15
41 15 7 0 23 9 36 21 l24 21 -27 -16 c-19 -11 -26 -12 -23 -4 3 7 17 18 30 25
14 6 22 7 19 2 -3 -6 5 -7 20 -3 25 6 26 5 26 -42 1 -27 8 -60 16 -74 l15 -25
-7 25 c-11 42 -10 93 3 97 15 5 65 -72 67 -104 0 -12 5 -22 10 -20 10 3 51
-32 44 -37 -2 -2 -22 -6 -45 -10 -36 -5 -43 -3 -48 14 -3 11 -4 24 0 30 3 6
-1 7 -9 4 -11 -4 -16 -18 -15 -43 0 -20 3 -30 6 -23 2 6 9 10 14 7 5 -3 3 -15
-4 -26 -10 -17 -9 -22 6 -33 21 -16 22 -26 2 -26 -8 0 -15 5 -15 10 0 6 -8 14
-18 18 -22 9 -135 74 -142 81 -9 10 -44 31 -86 51 -39 19 -47 19 -113 7 -39
-8 -71 -10 -71 -5 0 22 106 114 144 125 35 11 36 12 8 8 -21 -3 -31 -1 -27 6
4 6 -2 8 -17 4 -58 -13 -188 -5 -213 15 -5 4 -30 10 -54 14 -45 7 -104 45
-123 80 -6 11 -13 54 -15 96 -10 219 1 277 57 301 16 8 30 17 30 21 0 5 10 8
22 8 11 0 35 15 51 33 17 17 27 25 24 16 -3 -9 3 -21 15 -28 11 -7 17 -19 14
-27 -7 -17 25 -19 42 -2 15 15 16 93 0 117 -10 16 -7 25 19 54 17 19 36 49 44
66 8 17 17 31 21 31 16 0 24 3 43 16 24 17 18 18 43 -5z m-1418 -53 c0 -10 5
-18 10 -18 6 0 10 -5 10 -11 0 -20 -43 -5 -46 16 -1 11 -6 31 -10 44 -7 23 -7
23 15 5 11 -10 21 -26 21 -36z m55 -41 c8 -9 10 -19 4 -28 -6 -10 -9 -10 -9
-1 0 6 -12 12 -27 12 -26 0 -26 1 -7 15 24 18 23 18 39 2z m-275 -43 c0 -2 -9
0 -20 6 -11 6 -20 13 -20 16 0 2 9 0 20 -6 11 -6 20 -13 20 -16z m35 7 c0 -8
-7 -16 -15 -18 -12 -4 -12 -3 -1 5 11 8 10 12 -5 21 -18 11 -18 12 1 9 11 -2
20 -10 20 -17z m3280 9 c3 -5 2 -10 -4 -10 -5 0 -13 5 -16 10 -3 6 -2 10 4 10
5 0 13 -4 16 -10z m-88 -39 c2 -27 -55 -87 -70 -72 -8 8 -1 21 28 51 21 22 39
40 40 40 0 0 1 -8 2 -19z m791 13 c13 -4 22 -14 22 -26 0 -11 -4 -16 -11 -12
-6 3 -15 0 -20 -7 -7 -11 -13 -9 -29 11 -11 14 -20 28 -20 33 0 8 26 9 58 1z
m-3937 -41 c13 -16 12 -17 -3 -4 -10 7 -18 15 -18 17 0 8 8 3 21 -13z m2284 1
c14 -9 25 -24 25 -33 0 -13 2 -13 9 -2 11 16 31 6 31 -16 0 -15 -47 -63 -62
-63 -13 0 -9 22 6 39 13 14 12 19 -5 41 l-19 25 7 -35 c3 -19 2 -32 -2 -28 -5
4 -14 3 -20 -2 -10 -8 -13 -1 -13 30 0 22 -4 44 -7 50 -10 16 23 12 50 -6z
m-1821 -116 c-5 -8 -2 -9 10 -5 10 4 15 3 11 -3 -3 -6 2 -10 12 -10 10 -1 36
-12 58 -25 22 -14 50 -29 62 -34 52 -23 21 -33 -57 -18 -19 4 -46 9 -60 11
-18 2 -25 9 -26 26 -1 13 -9 29 -18 35 -20 15 -21 35 0 35 9 0 12 -5 8 -12z
m1981 -8 c10 -11 15 -20 12 -20 -4 0 2 -20 13 -46 11 -25 15 -42 8 -38 -8 5
-9 -2 -4 -22 5 -21 4 -25 -4 -14 -5 8 -10 26 -10 40 0 14 -7 36 -16 48 -8 12
-12 22 -8 22 3 0 -1 11 -10 25 -20 30 -7 33 19 5z m315 6 c0 -2 -7 -6 -15 -10
-8 -3 -15 -1 -15 4 0 6 7 10 15 10 8 0 15 -2 15 -4z m-447 -71 c12 -72 -21
-211 -60 -253 -7 -7 -13 -17 -13 -21 0 -4 -27 -35 -60 -70 -33 -35 -60 -65
-60 -67 0 -1 -12 -16 -26 -31 -14 -15 -35 -47 -46 -71 -19 -39 -22 -42 -38
-27 -9 8 -20 15 -23 15 -13 0 -47 34 -47 47 0 6 6 16 14 20 7 4 21 23 31 42 9
18 25 36 36 38 10 3 16 10 12 16 -4 6 -1 7 6 2 13 -8 31 12 66 74 12 20 34 56
50 81 19 30 33 71 42 124 19 106 25 116 72 116 36 0 39 -2 44 -35z m-1688 15
c3 -6 -1 -7 -9 -4 -18 7 -21 14 -7 14 6 0 13 -4 16 -10z m2752 -12 c-3 -8 -6
-5 -6 6 -1 11 2 17 5 13 3 -3 4 -12 1 -19z m-737 -39 c0 -5 -8 -9 -17 -9 -16
0 -16 -2 3 -18 16 -14 44 -62 44 -76 0 -2 -12 -7 -26 -10 -32 -8 -48 9 -69 81
-8 28 -15 53 -15 56 0 3 18 0 40 -5 22 -6 40 -14 40 -19z m90 -36 c0 -13 -3
-13 -15 -3 -8 7 -15 19 -15 27 0 13 3 13 15 3 8 -7 15 -19 15 -27z m-1870 17
c0 -5 -4 -10 -10 -10 -5 0 -10 5 -10 10 0 6 5 10 10 10 6 0 10 -4 10 -10z
m1617 -62 c-3 -8 -6 -5 -6 6 -1 11 2 17 5 13 3 -3 4 -12 1 -19z m397 4 c7 -12
-40 -52 -62 -52 -9 1 -30 7 -47 15 -26 12 -27 13 -8 14 12 1 25 -3 28 -9 3 -5
14 -10 23 -10 14 0 14 2 3 9 -11 7 -9 10 8 16 11 3 21 11 21 16 0 11 27 12 34
1z m206 -4 c0 -5 -4 -8 -10 -8 -5 0 -10 -4 -10 -10 0 -5 -9 -19 -20 -30 -11
-11 -24 -20 -30 -20 -5 0 -10 -4 -10 -10 0 -14 -28 -12 -33 3 -6 20 4 47 19
47 8 0 14 5 14 10 0 6 7 10 16 10 8 0 13 4 10 9 -3 4 8 8 24 7 17 -1 30 -4 30
-8z m910 -34 c0 -2 -7 -4 -15 -4 -8 0 -15 4 -15 10 0 5 7 7 15 4 8 -4 15 -8
15 -10z m-1247 -32 c55 -25 122 -31 154 -14 30 17 35 15 31 -10 -3 -25 -31
-36 -100 -37 -59 -1 -158 35 -158 59 0 18 10 32 19 27 3 -1 28 -13 54 -25z
m767 5 c14 -7 29 -18 33 -24 4 -7 21 -13 37 -13 20 0 31 -6 35 -20 5 -15 12
-19 30 -14 20 5 27 1 36 -20 12 -27 34 -35 41 -15 6 19 117 0 141 -24 28 -28
8 -34 -44 -13 -21 9 -63 16 -92 16 -30 1 -60 7 -71 15 -11 8 -26 15 -34 15
-14 0 -64 20 -117 47 -34 18 -55 41 -55 60 0 13 15 10 60 -10z m-2478 -69 c-7
-7 -12 -8 -12 -2 0 14 12 26 19 19 2 -3 -1 -11 -7 -17z m1248 -18 c-6 -11 -13
-20 -16 -20 -2 0 0 9 6 20 6 11 13 20 16 20 2 0 0 -9 -6 -20z m-31 -62 c-13
-18 -27 -34 -31 -36 -4 -2 -8 -8 -8 -12 0 -5 -27 -37 -60 -71 -33 -34 -60 -65
-60 -70 0 -5 -7 -9 -15 -9 -8 0 -15 -7 -15 -17 0 -9 -2 -14 -5 -11 -11 11 6
54 36 88 95 110 153 170 166 170 11 0 9 -8 -8 -32z m-297 -120 c-28 -28 -38
-18 -11 11 12 12 24 20 27 16 3 -3 -4 -15 -16 -27z m266 -29 c-12 -24 -26 -45
-30 -47 -4 -2 -8 -9 -8 -17 0 -17 -86 -95 -105 -95 -21 0 -20 52 3 77 21 25
109 93 120 93 4 0 13 9 20 21 23 36 22 15 0 -32z m-778 -24 c0 -2 -10 -14 -22
-26 -13 -12 -17 -19 -10 -15 18 11 15 0 -5 -15 -10 -7 -15 -10 -11 -5 4 5 -4
17 -17 28 -36 28 -31 38 20 38 25 0 45 -2 45 -5z m-314 -37 c-15 -48 -17 -52
-25 -39 -12 18 -2 51 15 51 7 0 12 -6 10 -12z m869 -28 c3 -5 2 -10 -4 -10 -5
0 -13 5 -16 10 -3 6 -2 10 4 10 5 0 13 -4 16 -10z m-595 -76 c0 -2 -7 -4 -15
-4 -8 0 -15 4 -15 10 0 5 7 7 15 4 8 -4 15 -8 15 -10z m120 -20 c0 -9 -12 -14
-35 -14 -19 0 -35 5 -35 11 0 6 9 9 20 6 13 -3 20 0 20 9 0 8 6 11 15 8 8 -4
15 -12 15 -20z m-173 -16 c-3 -8 -6 -5 -6 6 -1 11 2 17 5 13 3 -3 4 -12 1 -19z
m623 12 c0 -5 6 -9 13 -7 7 1 13 -11 15 -30 3 -33 15 -42 27 -23 7 11 35 -12
35 -28 0 -5 9 -21 20 -35 16 -21 19 -34 14 -67 -5 -31 -3 -44 7 -50 8 -5 16
-5 19 0 19 30 81 -68 98 -155 6 -27 13 -61 18 -74 5 -18 4 -22 -6 -16 -7 4
-16 2 -21 -6 -5 -9 -7 4 -3 34 4 34 2 47 -8 48 -7 1 -17 2 -23 4 -5 1 -15 3
-20 3 -6 1 -19 16 -29 33 l-18 31 28 -4 c15 -2 30 -9 32 -17 3 -9 0 -11 -9 -5
-12 7 -12 5 0 -9 7 -9 19 -17 25 -16 7 0 6 2 -2 6 -6 2 -9 9 -6 14 10 16 -17
39 -46 39 -20 0 -35 10 -56 38 -15 20 -32 39 -36 40 -14 6 -8 32 7 32 8 0 15
2 15 4 0 12 -43 76 -51 76 -5 0 -9 14 -9 30 0 17 -4 30 -9 30 -16 0 -33 -29
-25 -42 5 -7 -6 -2 -23 12 -18 14 -37 40 -43 58 -10 29 -10 35 7 47 21 17 63
20 63 5z m-540 -11 c0 -5 -4 -7 -10 -4 -5 3 -10 0 -10 -7 0 -8 -19 -32 -41
-53 -28 -27 -38 -33 -30 -17 6 12 16 22 21 22 5 0 12 9 15 20 11 36 55 67 55
39z m-119 -76 c-8 -15 -10 -15 -11 -2 0 17 10 32 18 25 2 -3 -1 -13 -7 -23z
m553 8 c3 -5 -2 -15 -12 -22 -9 -7 -14 -9 -10 -5 4 5 3 15 -3 23 -9 10 -8 13
4 13 9 0 18 -4 21 -9z m286 -67 c0 -24 -17 -15 -22 11 -4 20 -3 23 8 14 8 -6
14 -18 14 -25z m-150 -49 c11 -13 10 -14 -4 -9 -9 3 -16 10 -16 15 0 13 6 11
20 -6z m35 5 c3 -5 2 -10 -4 -10 -5 0 -13 5 -16 10 -3 6 -2 10 4 10 5 0 13 -4
16 -10z m315 -243 c12 -4 12 -6 -2 -6 -17 -1 -57 33 -93 79 -11 14 3 4 30 -21
28 -26 57 -49 65 -52z m-99 -84 c13 -16 12 -17 -3 -4 -10 7 -18 15 -18 17 0 8
8 3 21 -13z m23 -55 c3 -13 1 -27 -3 -31 -14 -14 -31 2 -31 29 0 30 26 32 34
2z m270 -128 l6 -35 -14 35 c-8 19 -15 42 -15 50 -1 26 16 -10 23 -50z"/>
<path d="M2801 1570 c-7 -17 -11 -34 -7 -37 6 -7 28 46 24 59 -2 4 -9 -6 -17
-22z"/>
<path d="M2767 1494 c-10 -13 -13 -24 -8 -24 10 0 36 39 29 45 -2 2 -11 -8
-21 -21z"/>
<path d="M2770 1453 c0 -10 -4 -14 -8 -8 -11 15 -29 16 -29 1 0 -7 5 -13 11
-13 35 1 69 -5 58 -10 -9 -3 -4 -10 14 -19 40 -21 42 -8 4 31 -38 39 -50 43
-50 18z"/>
<path d="M2397 1323 c-3 -15 0 -31 6 -35 17 -10 23 -2 22 28 -2 37 -21 42 -28
7z"/>
<path d="M2906 1125 c-11 -8 -15 -15 -10 -15 6 0 19 7 30 15 10 8 15 14 9 14
-5 0 -19 -6 -29 -14z"/>
<path d="M2860 1100 c-9 -6 -10 -10 -3 -10 6 0 15 5 18 10 8 12 4 12 -15 0z"/>
<path d="M2807 1055 c-15 -14 -27 -29 -27 -32 0 -4 14 6 30 22 28 26 34 35 27
35 -1 0 -15 -11 -30 -25z"/>
<path d="M2838 1013 c6 -2 18 -2 25 0 6 3 1 5 -13 5 -14 0 -19 -2 -12 -5z"/>
<path d="M1708 1483 c7 -3 16 -2 19 1 4 3 -2 6 -13 5 -11 0 -14 -3 -6 -6z"/>
<path d="M3237 693 c-2 -4 4 -16 14 -26 15 -16 17 -16 15 -3 -3 21 -22 40 -29
29z"/>
<path d="M2540 2503 c-30 -11 -67 -54 -65 -76 2 -22 36 -47 65 -47 9 0 29 -12
46 -27 16 -16 42 -34 57 -40 25 -12 27 -11 27 10 0 24 -31 57 -55 57 -8 0 -18
6 -22 13 -4 7 -25 23 -46 36 -21 13 -36 25 -34 28 9 8 142 -18 171 -34 40 -22
76 -25 76 -6 0 8 -9 17 -20 20 -11 3 -17 10 -13 16 3 6 1 7 -6 3 -6 -4 -32 4
-57 18 -48 27 -99 39 -124 29z"/>
<path d="M211 2479 c0 -13 4 -33 9 -44 7 -14 8 -8 3 20 -7 46 -13 59 -12 24z"/>
<path d="M1072 2355 c0 -16 2 -22 5 -12 2 9 2 23 0 30 -3 6 -5 -1 -5 -18z"/>
<path d="M1084 2251 c1 -48 6 -76 14 -79 7 -2 10 -8 6 -13 -3 -5 0 -9 5 -9 6
0 11 9 11 20 0 11 -4 20 -8 20 -5 0 -14 30 -20 68 l-10 67 2 -74z"/>
<path d="M232 2260 c0 -14 2 -19 5 -12 2 6 2 18 0 25 -3 6 -5 1 -5 -13z"/>
<path d="M4488 2253 c7 -3 16 -2 19 1 4 3 -2 6 -13 5 -11 0 -14 -3 -6 -6z"/>
<path d="M4390 2240 c8 -5 22 -9 30 -9 10 0 8 3 -5 9 -27 12 -43 12 -25 0z"/>
<path d="M4370 2215 c0 -8 5 -15 10 -15 6 0 10 7 10 15 0 8 -4 15 -10 15 -5 0
-10 -7 -10 -15z"/>
<path d="M5156 2203 c-11 -11 -6 -23 9 -23 8 0 15 4 15 9 0 13 -16 22 -24 14z"/>
<path d="M5012 2182 c-7 -5 16 -7 50 -4 85 5 96 10 23 11 -33 0 -66 -3 -73 -7z"/>
<path d="M5238 2183 c7 -3 16 -2 19 1 4 3 -2 6 -13 5 -11 0 -14 -3 -6 -6z"/>
<path d="M251 2154 c0 -11 3 -14 6 -6 3 7 2 16 -1 19 -3 4 -6 -2 -5 -13z"/>
<path d="M2010 2163 c1 -14 25 -39 43 -46 16 -6 16 -4 -3 23 -20 28 -40 40
-40 23z"/>
<path d="M4838 2148 c5 -5 16 -8 23 -6 8 3 3 7 -10 11 -17 4 -21 3 -13 -5z"/>
<path d="M4345 2140 c3 -5 8 -10 11 -10 2 0 4 5 4 10 0 6 -5 10 -11 10 -5 0
-7 -4 -4 -10z"/>
<path d="M4285 2120 c-3 -5 -1 -10 4 -10 6 0 11 5 11 10 0 6 -2 10 -4 10 -3 0
-8 -4 -11 -10z"/>
<path d="M4712 2104 c-22 -26 -17 -31 10 -10 10 7 14 16 10 20 -4 4 5 5 19 1
15 -4 30 -2 33 4 13 21 -51 7 -72 -15z"/>
<path d="M2094 2095 c8 -8 18 -15 22 -15 4 0 16 -7 26 -17 10 -9 18 -11 18 -6
0 6 -16 20 -36 32 -42 25 -51 27 -30 6z"/>
<path d="M1830 2070 c0 -5 7 -7 15 -4 8 4 15 8 15 10 0 2 -7 4 -15 4 -8 0 -15
-4 -15 -10z"/>
<path d="M261 2034 c0 -11 3 -14 6 -6 3 7 2 16 -1 19 -3 4 -6 -2 -5 -13z"/>
<path d="M4620 2035 c-7 -9 -8 -15 -2 -15 5 0 12 7 16 15 3 8 4 15 2 15 -2 0
-9 -7 -16 -15z"/>
<path d="M2215 2032 c17 -15 77 -34 125 -38 37 -2 41 -1 21 7 -14 5 -30 8 -37
5 -7 -3 -36 4 -66 15 -29 11 -48 16 -43 11z"/>
<path d="M3981 2023 c-7 -8 -11 -16 -8 -19 2 -2 10 2 17 11 17 20 9 27 -9 8z"/>
<path d="M440 2010 c0 -5 7 -7 15 -4 8 4 15 8 15 10 0 2 -7 4 -15 4 -8 0 -15
-4 -15 -10z"/>
<path d="M4436 2005 c-11 -8 -15 -15 -9 -15 6 0 16 7 23 15 16 19 11 19 -14 0z"/>
<path d="M4547 1993 c-6 -16 -14 -30 -18 -33 -8 -7 -29 -47 -29 -56 0 -4 10 6
22 22 13 16 36 42 53 58 26 24 27 27 6 16 -21 -11 -23 -10 -18 4 11 27 -3 18
-16 -11z"/>
<path d="M5050 2017 c0 -10 41 -49 46 -45 8 9 -19 48 -33 48 -7 0 -13 -2 -13
-3z"/>
<path d="M5103 1995 c7 -14 18 -25 25 -25 15 0 15 10 -2 33 -21 27 -36 22 -23
-8z"/>
<path d="M5140 2005 c0 -8 7 -15 15 -15 8 0 15 -4 15 -10 0 -5 7 -10 15 -10
14 0 13 3 -2 25 -20 27 -43 33 -43 10z"/>
<path d="M5196 2005 c4 -9 15 -20 25 -26 17 -9 18 -7 7 16 -12 27 -42 36 -32
10z"/>
<path d="M5249 2001 c6 -10 8 -21 5 -24 -3 -3 4 -3 15 0 21 5 21 7 5 24 -22
24 -38 24 -25 0z"/>
<path d="M405 1990 c3 -5 11 -10 16 -10 6 0 7 5 4 10 -3 6 -11 10 -16 10 -6 0
-7 -4 -4 -10z"/>
<path d="M4623 1993 c-7 -2 -13 -9 -13 -14 0 -14 26 -10 40 6 10 12 10 15 -1
14 -8 0 -20 -3 -26 -6z"/>
<path d="M1380 1980 c0 -12 8 -12 35 0 18 8 17 9 -7 9 -16 1 -28 -3 -28 -9z"/>
<path d="M4420 1965 c0 -5 5 -17 10 -25 5 -8 10 -10 10 -5 0 6 -5 17 -10 25
-5 8 -10 11 -10 5z"/>
<path d="M4938 1963 c7 -3 16 -2 19 1 4 3 -2 6 -13 5 -11 0 -14 -3 -6 -6z"/>
<path d="M270 1950 c0 -5 5 -10 11 -10 5 0 7 5 4 10 -3 6 -8 10 -11 10 -2 0
-4 -4 -4 -10z"/>
<path d="M2121 1946 c-6 -7 -13 -35 -16 -62 l-6 -49 20 24 c12 13 21 20 21 16
0 -17 17 10 23 35 8 31 -24 58 -42 36z"/>
<path d="M3218 1943 c7 -3 16 -2 19 1 4 3 -2 6 -13 5 -11 0 -14 -3 -6 -6z"/>
<path d="M4575 1940 c-3 -5 1 -10 10 -10 9 0 13 5 10 10 -3 6 -8 10 -10 10 -2
0 -7 -4 -10 -10z"/>
<path d="M3288 1933 c12 -2 30 -2 40 0 9 3 -1 5 -23 4 -22 0 -30 -2 -17 -4z"/>
<path d="M1329 1902 c16 -31 23 -32 71 -18 l44 13 -40 6 c-21 3 -50 9 -63 13
-21 6 -22 5 -12 -14z"/>
<path d="M244 1872 c2 -4 -23 -16 -57 -26 -34 -10 -78 -24 -97 -31 -19 -8 -47
-16 -62 -19 -27 -6 -28 -8 -28 -76 0 -82 -11 -77 135 -55 55 8 145 18 200 22
l100 8 0 54 c0 47 3 55 23 64 15 7 26 7 30 1 4 -5 14 -8 22 -8 8 1 31 2 51 3
19 0 44 9 56 20 13 12 30 18 49 15 28 -3 28 -3 4 5 -36 13 -153 13 -145 1 9
-15 -72 -12 -98 4 -23 14 -191 31 -183 18z m339 -29 c-7 -2 -19 -2 -25 0 -7 3
-2 5 12 5 14 0 19 -2 13 -5z"/>
<path d="M4048 1853 c12 -2 30 -2 40 0 9 3 -1 5 -23 4 -22 0 -30 -2 -17 -4z"/>
<path d="M3963 1843 c9 -2 23 -2 30 0 6 3 -1 5 -18 5 -16 0 -22 -2 -12 -5z"/>
<path d="M4165 1840 c11 -5 27 -9 35 -9 9 0 8 4 -5 9 -11 5 -27 9 -35 9 -9 0
-8 -4 5 -9z"/>
<path d="M927 1809 c7 -7 15 -10 18 -7 3 3 -2 9 -12 12 -14 6 -15 5 -6 -5z"/>
<path d="M840 1796 c0 -2 7 -7 16 -10 8 -3 12 -2 9 4 -6 10 -25 14 -25 6z"/>
<path d="M960 1796 c0 -2 8 -10 18 -17 15 -13 16 -12 3 4 -13 16 -21 21 -21
13z"/>
<path d="M700 1760 c0 -10 17 -15 85 -24 22 -3 50 -9 63 -12 12 -4 22 -2 22 3
0 12 -98 43 -138 43 -18 0 -32 -4 -32 -10z"/>
<path d="M484 1741 c3 -5 15 -7 26 -4 28 7 25 13 -6 13 -14 0 -23 -4 -20 -9z"/>
<path d="M4100 1721 c0 -11 21 -19 38 -14 21 8 13 23 -13 23 -14 0 -25 -4 -25
-9z"/>
<path d="M960 1701 c0 -6 4 -13 10 -16 6 -3 7 1 4 9 -7 18 -14 21 -14 7z"/>
<path d="M982 1640 c0 -14 2 -19 5 -12 2 6 2 18 0 25 -3 6 -5 1 -5 -13z"/>
<path d="M357 1626 c-27 -7 -54 -19 -60 -26 -10 -10 -8 -11 8 -5 11 5 45 12
75 18 47 8 62 6 105 -11 28 -11 49 -25 48 -31 -2 -6 4 -8 12 -5 20 8 19 -10
-1 -30 -20 -20 -24 -20 -41 2 -8 9 -12 11 -8 5 7 -15 -16 -18 -30 -4 -18 18
-138 28 -190 16 l-50 -12 68 3 c45 1 78 -3 99 -13 47 -24 93 -75 53 -59 -12 4
-13 2 -2 -15 10 -16 14 -17 23 -5 6 9 15 11 24 6 7 -4 20 -6 29 -3 13 4 13 3
2 -5 -7 -5 -23 -7 -35 -5 -11 3 -1 -6 24 -18 58 -30 55 -28 44 -39 -6 -6 -20
-4 -38 5 -15 8 -32 12 -37 9 -5 -3 -6 3 -2 12 5 14 2 16 -16 11 -15 -4 -26 1
-34 14 -14 23 -29 25 -20 4 4 -13 52 -45 73 -50 22 -6 59 -26 65 -35 5 -9 1
-10 -16 -5 -17 4 -20 3 -10 -3 7 -5 10 -15 7 -21 -5 -7 3 -11 20 -11 21 0 24
-3 15 -13 -9 -11 -5 -14 18 -15 39 -1 74 -36 65 -65 -6 -21 -6 -21 12 -2 18
17 19 17 22 1 4 -20 -27 -48 -45 -41 -17 6 -16 -7 1 -30 12 -17 13 -17 19 7 8
32 47 46 47 16 0 -10 -3 -17 -7 -15 -5 3 -7 -18 -6 -46 l2 -52 -11 36 c-8 28
-16 36 -32 35 -21 -1 -21 -5 -21 -136 1 -121 -1 -140 -22 -182 -13 -27 -28
-48 -33 -48 -6 0 -10 -13 -10 -30 0 -28 3 -30 34 -30 28 0 35 -4 38 -22 5 -37
23 -17 22 24 0 20 3 35 7 32 7 -4 25 -91 21 -106 -1 -3 5 -12 13 -18 8 -7 15
-19 15 -28 0 -8 8 -39 17 -69 14 -44 21 -53 40 -53 19 0 24 7 29 40 8 50 20
44 29 -17 4 -27 10 -52 15 -58 4 -5 8 -17 8 -25 5 -75 17 -126 33 -143 11 -12
18 -33 17 -55 -1 -23 4 -37 16 -44 9 -5 16 -19 15 -31 -3 -44 1 -68 11 -62 6
4 24 4 40 0 23 -5 30 -12 30 -31 0 -13 -4 -24 -10 -24 -5 0 -10 -4 -10 -10 0
-6 38 -10 93 -10 92 0 93 0 95 25 1 14 -3 25 -8 25 -6 0 -10 5 -10 11 0 6 -7
17 -15 25 -8 9 -15 27 -15 42 0 15 -3 37 -6 50 -10 36 18 17 38 -26 9 -20 29
-63 43 -94 26 -56 28 -58 66 -58 42 0 46 5 25 35 -8 11 -19 40 -27 65 -7 25
-19 50 -26 57 -8 6 -13 17 -12 25 2 7 -2 23 -9 36 -7 12 -10 31 -7 42 6 18 7
18 26 2 18 -16 18 -17 2 -24 -12 -4 -13 -7 -4 -7 8 -1 12 -4 8 -7 -8 -8 18
-70 38 -90 8 -9 15 -20 15 -26 0 -6 3 -8 6 -5 4 3 15 2 24 -3 13 -7 16 -17 13
-32 -3 -13 -3 -20 1 -17 11 11 12 88 1 93 -5 2 -7 6 -3 10 3 4 15 3 26 -3 12
-6 33 -11 49 -12 15 0 22 -3 15 -6 -6 -2 -9 -9 -6 -14 3 -6 12 -2 20 8 13 17
13 17 14 -1 0 -18 1 -18 19 2 10 12 23 22 30 22 6 0 11 5 11 11 0 5 4 7 10 4
5 -3 15 3 22 15 20 31 42 26 33 -8 -3 -15 -11 -28 -16 -30 -15 -6 -10 -32 6
-32 8 0 15 5 15 10 0 6 7 10 15 10 28 0 15 -18 -17 -26 -31 -6 -28 -8 37 -21
39 -7 78 -18 87 -23 10 -6 24 -10 32 -10 8 0 16 -10 18 -22 2 -13 11 -24 20
-26 12 -2 15 2 11 17 -3 12 -10 21 -16 21 -6 0 -8 3 -4 6 7 7 -18 35 -30 33
-24 -4 -35 2 -25 14 7 8 6 16 -4 25 -8 7 -14 8 -14 2 0 -5 -4 -10 -10 -10 -5
0 -10 6 -10 14 0 15 -45 30 -60 21 -12 -7 -12 13 0 40 l9 20 1 -20 1 -20 8 20
c10 25 0 32 -44 29 -33 -3 -35 -1 -35 26 0 40 -16 38 -31 -5 -7 -19 -19 -35
-26 -35 -7 0 -10 -6 -7 -14 6 -16 -23 -49 -37 -41 -16 11 -10 25 11 25 11 0
20 4 20 10 0 5 -6 7 -14 4 -8 -3 -17 -1 -20 4 -3 5 8 12 24 16 17 3 30 10 30
14 0 10 -76 -1 -87 -11 -3 -4 -1 -13 6 -21 9 -11 6 -14 -16 -14 -16 0 -30 4
-33 8 -8 14 -60 23 -60 12 0 -6 8 -13 18 -16 10 -3 6 -4 -8 -3 -26 2 -29 14
-14 52 6 16 3 15 -14 -5 l-22 -25 6 27 c6 29 -12 72 -27 63 -5 -4 -10 10 -10
29 -3 74 -4 79 -22 82 -26 4 -34 14 -12 14 17 0 17 1 0 20 -16 17 -16 20 -2
20 9 0 19 5 22 10 4 6 3 10 -2 9 -4 -1 -19 -1 -33 0 l-25 2 25 14 c19 11 21
14 8 15 -10 0 -18 5 -18 10 0 6 -8 10 -17 10 -16 0 -18 9 -17 65 2 50 -1 65
-12 65 -8 0 -14 5 -14 11 0 5 -13 15 -29 20 -16 6 -32 17 -35 24 -3 9 0 12 9
9 9 -4 13 1 12 15 0 11 -3 18 -5 16 -7 -7 -43 37 -39 48 2 7 -7 22 -20 34 -27
26 -29 33 -8 33 8 0 15 5 15 11 0 5 -5 7 -11 3 -8 -4 -9 0 -4 15 5 18 2 21
-23 21 -17 0 -33 -6 -35 -12 -6 -14 -10 49 -7 95 1 19 -3 27 -15 27 -13 0 -16
6 -11 25 13 55 15 79 3 42 -7 -21 -17 -34 -21 -30 -5 4 -6 0 -3 -10 4 -11 3
-16 -3 -12 -6 3 -10 20 -10 36 0 17 4 28 9 25 11 -7 21 17 21 48 0 14 -9 27
-22 33 -23 11 -23 11 5 18 15 4 26 12 24 19 -5 15 -43 14 -39 -1 1 -7 -2 -13
-8 -13 -17 0 -11 22 13 48 12 14 17 22 11 19 -7 -4 -11 4 -12 22 0 15 -15 54
-32 86 -17 31 -28 60 -25 64 4 3 11 -2 16 -12 6 -9 17 -17 26 -17 13 0 13 -3
3 -15 -11 -13 -8 -15 15 -15 27 0 27 1 12 18 -10 10 -17 23 -17 29 0 6 -6 14
-12 17 -7 3 0 4 17 0 28 -5 29 -5 12 14 -9 10 -17 28 -17 40 0 13 -6 22 -15
22 -8 0 -15 5 -15 11 0 5 -4 8 -9 5 -5 -3 -14 1 -21 9 -10 13 -9 15 11 16 16
0 19 3 9 6 -8 3 -17 9 -20 13 -3 5 -16 10 -30 11 -14 2 -30 10 -36 18 -10 13
-14 13 -28 -2 -16 -16 -16 -17 1 -17 10 0 24 -9 31 -20 10 -16 10 -20 0 -20
-9 0 -8 -3 2 -10 8 -5 10 -10 4 -10 -6 0 -24 13 -40 30 -16 16 -33 30 -39 30
-5 0 -3 -5 5 -10 8 -5 13 -10 10 -11 -3 0 -13 -2 -22 -4 -10 -2 -18 3 -18 11
0 22 -20 17 -29 -8 -5 -13 -10 -17 -15 -10 -4 6 -13 9 -22 5 -8 -3 -22 1 -32
8 -27 22 -74 46 -107 53 -16 4 -37 9 -45 11 -8 2 -37 -2 -63 -9z m267 -82 c3
-8 2 -12 -4 -9 -6 3 -10 10 -10 16 0 14 7 11 14 -7z m73 -10 c-9 -9 -28 6 -21
18 4 6 10 6 17 -1 6 -6 8 -13 4 -17z m123 -53 c0 -6 -4 -13 -10 -16 -5 -3 -10
1 -10 9 0 9 5 16 10 16 6 0 10 -4 10 -9z m6 -156 c9 -37 -2 -41 -14 -6 -7 18
-7 31 -2 31 5 0 12 -11 16 -25z m-216 -10 c0 -12 -19 -12 -23 0 -4 9 -1 12 9
8 7 -3 14 -7 14 -8z m255 -47 c6 -4 2 -8 -7 -8 -10 0 -18 7 -18 17 0 9 3 12 8
7 4 -5 12 -12 17 -16z m45 -148 c0 -5 -4 -10 -10 -10 -5 0 -10 5 -10 10 0 6 5
10 10 10 6 0 10 -4 10 -10z m760 -1001 c0 -5 -9 -9 -20 -9 -13 0 -18 5 -14 14
6 15 34 11 34 -5z m-681 -16 c2 -2 -5 -3 -16 -3 -11 0 -20 7 -20 15 0 12 3 12
16 3 9 -7 18 -14 20 -15z m51 -73 c0 -5 -4 -10 -10 -10 -5 0 -10 5 -10 10 0 6
5 10 10 10 6 0 10 -4 10 -10z"/>
<path d="M895 1560 c-4 -7 -4 -15 1 -19 5 -3 9 -12 9 -18 0 -7 5 -12 10 -10
11 2 9 37 -4 50 -5 5 -12 3 -16 -3z"/>
<path d="M330 1466 c0 -2 7 -7 16 -10 8 -3 12 -2 9 4 -6 10 -25 14 -25 6z"/>
<path d="M962 1367 c-2 -44 -3 -47 -22 -37 -14 7 -20 7 -20 0 0 -5 7 -10 15
-10 10 0 15 -11 16 -37 1 -33 2 -31 11 17 5 30 7 69 5 85 -3 20 -4 13 -5 -18z"/>
<path d="M25 1370 c-24 -7 -19 -8 20 -4 52 5 185 -21 185 -37 0 -4 8 -7 18 -7
45 4 197 -112 231 -176 15 -27 45 -37 35 -11 -4 8 -11 12 -17 8 -7 -4 -8 0 -4
11 4 10 7 22 7 28 0 6 13 8 30 6 39 -6 38 6 -1 29 -22 13 -29 24 -26 40 2 12
-1 21 -7 20 -5 -1 -10 4 -11 11 0 11 -15 18 -15 7 0 -3 0 -12 0 -21 0 -8 5
-12 10 -9 6 3 10 4 10 0 0 -3 -10 -10 -22 -15 -16 -6 -18 -9 -7 -9 10 -1 19
-13 23 -32 9 -48 8 -50 -17 -26 -19 19 -20 24 -7 35 13 11 13 12 0 11 -36 -3
-42 1 -26 17 21 20 21 64 1 64 -8 0 -15 6 -15 14 0 17 -11 25 -40 31 -11 2
-18 0 -15 -6 4 -5 0 -9 -8 -9 -7 0 -14 -6 -14 -14 0 -8 3 -14 6 -13 4 1 21
-13 38 -30 18 -18 29 -33 25 -33 -11 0 -116 80 -120 91 -2 5 -16 9 -31 9 -15
0 -31 3 -35 7 -16 16 -158 26 -201 13z"/>
<path d="M900 1349 c0 -18 2 -19 15 -5 8 8 15 17 15 20 0 3 -7 6 -15 6 -9 0
-15 -9 -15 -21z"/>
<path d="M1920 1330 c0 -6 7 -10 15 -10 8 0 15 2 15 4 0 2 -7 6 -15 10 -8 3
-15 1 -15 -4z"/>
<path d="M570 1243 c1 -14 27 -43 39 -43 17 0 13 14 -9 33 -22 18 -30 21 -30
10z"/>
<path d="M608 1243 c7 -3 16 -2 19 1 4 3 -2 6 -13 5 -11 0 -14 -3 -6 -6z"/>
<path d="M942 1150 c0 -14 2 -19 5 -12 2 6 2 18 0 25 -3 6 -5 1 -5 -13z"/>
<path d="M2097 1144 c-10 -10 -9 -36 2 -30 10 7 33 -42 26 -55 -4 -5 1 -9 9
-9 19 0 27 13 31 50 3 26 1 30 -18 30 -13 0 -28 5 -33 10 -6 6 -13 7 -17 4z"/>
<path d="M500 1106 c0 -2 7 -17 15 -32 16 -30 19 -25 9 14 -5 18 -24 33 -24
18z"/>
<path d="M1110 1076 c0 -2 7 -7 16 -10 8 -3 12 -2 9 4 -6 10 -25 14 -25 6z"/>
<path d="M1160 1040 c0 -5 7 -10 15 -10 8 0 15 5 15 10 0 6 -7 10 -15 10 -8 0
-15 -4 -15 -10z"/>
<path d="M531 895 c-1 -100 3 -145 9 -135 12 18 12 237 0 265 -5 12 -9 -37 -9
-130z"/>
<path d="M977 1034 c-4 -4 -4 -10 -2 -14 6 -10 45 0 45 11 0 10 -33 12 -43 3z"/>
<path d="M1170 1010 c8 -5 15 -13 15 -17 0 -14 46 -83 56 -83 5 0 8 -3 8 -7
-4 -25 3 -43 16 -43 8 0 15 -9 15 -21 0 -11 5 -17 10 -14 6 3 13 -2 17 -12 4
-10 13 -24 20 -31 7 -7 13 -20 13 -28 0 -8 7 -14 15 -14 8 0 15 -7 15 -15 0
-8 10 -23 22 -35 12 -11 19 -22 16 -26 -3 -3 14 -26 37 -51 24 -25 49 -58 55
-72 6 -14 24 -35 40 -46 17 -11 30 -24 30 -30 0 -5 9 -21 20 -35 57 -73 88
-119 83 -124 -4 -3 1 -6 10 -6 8 0 19 -9 22 -20 3 -11 11 -20 16 -20 5 0 9 -7
9 -15 0 -8 7 -15 15 -15 8 0 15 -7 15 -15 0 -9 7 -18 15 -21 8 -4 15 -10 15
-16 0 -5 21 -31 48 -57 26 -27 61 -65 79 -85 31 -35 35 -37 85 -34 l53 3 -22
23 c-13 12 -23 25 -23 28 0 3 -13 25 -30 49 -16 24 -30 48 -30 54 0 6 -7 11
-15 11 -8 0 -15 7 -15 15 0 8 -4 15 -10 15 -5 0 -10 6 -10 13 0 7 -24 39 -54
70 -30 31 -58 66 -61 77 -4 11 -11 18 -16 15 -5 -4 -12 2 -16 12 -4 10 -17 28
-30 40 -13 12 -23 27 -23 33 0 5 -4 10 -10 10 -5 0 -10 6 -10 14 0 8 -7 16
-15 20 -8 3 -20 17 -25 31 -5 14 -14 25 -20 25 -5 0 -10 5 -10 11 0 6 -18 29
-40 51 -22 23 -40 37 -40 32 0 -10 -22 26 -39 64 -6 12 -15 22 -20 22 -5 0
-11 9 -14 21 -3 12 -10 18 -15 15 -11 -6 -40 24 -32 33 3 3 -5 10 -17 16 -14
6 -23 18 -23 33 0 12 -6 25 -14 28 -8 3 -17 15 -20 27 -5 20 -62 64 -77 60 -4
-1 -10 9 -13 22 -6 22 -12 25 -49 25 -30 0 -38 -3 -27 -10z"/>
<path d="M2080 1016 c0 -2 7 -6 15 -10 8 -3 15 -1 15 4 0 6 -7 10 -15 10 -8 0
-15 -2 -15 -4z"/>
<path d="M2066 971 c12 -13 22 -17 28 -11 12 12 8 15 -22 25 -23 7 -23 6 -6
-14z"/>
<path d="M1015 960 c-3 -5 -4 -10 -1 -10 2 0 11 -3 20 -6 11 -4 16 -1 16 10 0
18 -25 22 -35 6z"/>
<path d="M2047 954 c-8 -8 3 -34 14 -34 5 0 9 9 9 20 0 19 -11 26 -23 14z"/>
<path d="M5065 940 c3 -5 8 -10 11 -10 2 0 4 5 4 10 0 6 -5 10 -11 10 -5 0 -7
-4 -4 -10z"/>
<path d="M4954 926 c-51 -28 -53 -32 -70 -146 -5 -32 0 -41 53 -97 32 -35 67
-63 78 -63 25 0 94 -79 95 -107 0 -13 19 -42 45 -69 25 -25 45 -47 45 -49 0
-2 40 -45 90 -97 l90 -93 0 153 c0 83 -3 151 -7 150 -5 -1 -26 16 -48 37 -22
21 -33 35 -25 30 9 -5 8 0 -4 13 -20 23 -32 30 -21 12 15 -25 -12 -7 -30 19
-11 17 -29 33 -40 36 -13 4 -16 8 -7 12 16 6 -3 33 -24 33 -8 0 -19 9 -26 20
-7 11 -20 20 -28 20 -13 0 -13 1 0 10 13 8 12 10 -2 10 -10 0 -18 5 -18 12 0
6 -3 9 -6 5 -8 -8 -114 100 -114 117 0 8 -6 16 -12 19 -8 3 -3 9 12 15 14 6
18 11 10 10 -8 0 -25 -5 -36 -12z"/>
<path d="M1063 922 c-13 -2 -23 -6 -23 -10 0 -10 49 -31 54 -24 9 16 -11 37
-31 34z"/>
<path d="M5135 910 c-3 -6 1 -7 9 -4 18 7 21 14 7 14 -6 0 -13 -4 -16 -10z"/>
<path d="M5274 896 c1 -8 5 -18 8 -22 4 -3 5 1 4 10 -1 8 -5 18 -8 22 -4 3 -5
-1 -4 -10z"/>
<path d="M5325 890 c-3 -6 1 -7 9 -4 18 7 21 14 7 14 -6 0 -13 -4 -16 -10z"/>
<path d="M5147 859 c7 -7 15 -10 18 -7 3 3 -2 9 -12 12 -14 6 -15 5 -6 -5z"/>
<path d="M1110 843 c0 -16 -2 -16 -11 -3 -9 12 -10 12 -5 -3 3 -10 6 -26 6
-34 0 -10 6 -14 20 -10 13 3 20 0 20 -9 0 -8 10 -14 23 -14 19 -1 19 -2 -8
-15 -21 -9 -24 -14 -12 -14 10 -1 15 -6 12 -11 -3 -6 1 -17 9 -26 9 -9 13 -20
10 -26 -4 -6 0 -14 7 -19 10 -6 11 -9 2 -9 -7 0 -13 -4 -13 -9 0 -5 9 -7 20
-4 11 3 20 1 20 -4 0 -5 10 -20 21 -32 18 -19 19 -25 8 -32 -12 -7 -12 -9 0
-9 9 0 11 -8 7 -25 -4 -14 -2 -25 4 -25 5 0 10 5 10 10 0 6 7 10 15 10 15 0
19 -10 16 -41 -1 -9 6 -19 15 -23 9 -3 14 -13 11 -20 -6 -14 25 -59 38 -56 15
4 16 -10 1 -16 -22 -8 -20 -24 3 -24 11 0 27 -8 37 -17 15 -16 16 -15 9 15 -5
25 -3 32 9 32 9 0 16 -4 16 -10 0 -5 7 -7 15 -4 8 4 12 10 9 15 -3 5 7 10 23
10 24 2 25 2 5 6 -13 3 -27 15 -32 28 -6 16 -15 23 -28 20 -15 -3 -19 1 -15
16 3 11 0 19 -6 19 -7 0 -9 5 -6 10 3 6 -1 10 -9 10 -19 0 -21 11 -5 27 15 15
3 33 -23 33 -15 0 -19 5 -15 19 3 11 -3 28 -15 40 -10 12 -16 21 -13 21 3 0 1
9 -5 20 -6 11 -16 20 -23 20 -7 0 -18 14 -25 30 -8 17 -20 30 -27 30 -11 0
-26 28 -29 55 -1 6 -9 16 -18 23 -10 7 -18 20 -18 28 0 9 -11 14 -30 14 -22 0
-30 -5 -30 -17z m30 -17 c0 -3 -4 -8 -10 -11 -5 -3 -10 -1 -10 4 0 6 5 11 10
11 6 0 10 -2 10 -4z"/>
<path d="M5080 846 c0 -2 8 -10 18 -17 15 -13 16 -12 3 4 -13 16 -21 21 -21
13z"/>
<path d="M5287 834 c-8 -8 3 -34 15 -34 7 0 6 5 -1 13 -6 8 -8 17 -4 20 3 4 4
7 1 7 -2 0 -7 -3 -11 -6z"/>
<path d="M5080 816 c0 -2 8 -10 18 -17 15 -13 16 -12 3 4 -13 16 -21 21 -21
13z"/>
<path d="M5230 810 c0 -5 5 -10 11 -10 5 0 7 5 4 10 -3 6 -8 10 -11 10 -2 0
-4 -4 -4 -10z"/>
<path d="M5174 744 c1 -8 8 -20 16 -27 12 -10 12 -9 2 5 -10 13 -10 17 0 20 8
3 7 6 -4 10 -10 4 -15 2 -14 -8z"/>
<path d="M5291 757 c2 -1 13 -9 24 -17 19 -14 19 -14 6 3 -7 9 -18 17 -24 17
-6 0 -8 -1 -6 -3z"/>
<path d="M493 708 c-73 -79 -149 -129 -203 -133 -14 -2 -38 -8 -55 -16 -16 -7
-32 -13 -35 -14 -3 0 -15 -6 -27 -13 -13 -7 -23 -10 -23 -7 0 4 -7 -1 -16 -9
-8 -9 -24 -16 -34 -16 -10 0 -20 -7 -24 -15 -3 -8 -16 -15 -29 -15 -14 0 -30
-6 -36 -13 -8 -11 -4 -13 22 -12 17 0 41 6 52 13 45 27 84 36 166 36 78 1 89
4 122 29 20 15 37 25 37 21 0 -10 -30 -32 -75 -55 -50 -25 -138 -142 -187
-249 -6 -14 -24 -53 -39 -87 l-29 -62 24 -26 c15 -16 22 -33 19 -45 -5 -19 1
-20 235 -20 l240 0 -4 23 -5 22 10 -23 c9 -19 18 -22 70 -22 58 0 61 1 66 28
3 15 11 43 17 62 19 57 26 141 17 214 -13 106 -26 101 -34 -11 -4 -54 -11
-114 -15 -133 -7 -30 -8 -25 -9 32 -1 42 -6 72 -14 80 -15 13 -11 48 5 48 6 0
7 11 4 24 -3 14 -1 36 5 50 14 29 4 105 -16 132 -12 17 -14 5 -11 -94 1 -62
-1 -115 -6 -118 -10 -6 -8 -20 -17 121 -9 146 -31 215 -68 215 -13 0 -26 7
-29 15 -4 8 -10 15 -15 15 -17 0 -104 -73 -118 -99 -9 -17 -16 -21 -19 -13 -5
15 43 69 69 77 9 3 19 19 22 34 4 16 13 31 21 33 10 2 12 8 8 16 -6 9 -17 4
-39 -20z m-188 -630 l-16 -23 2 30 c2 17 8 36 14 44 8 12 11 10 13 -7 2 -12
-4 -32 -13 -44z m261 -27 c-4 -5 0 -11 6 -14 16 -5 10 -12 -19 -21 -14 -5 -23
-3 -23 3 0 6 5 10 12 9 7 -2 13 3 14 10 3 19 4 22 10 22 3 0 3 -4 0 -9z m164
-26 c0 -5 -5 -3 -10 5 -5 8 -10 20 -10 25 0 6 5 3 10 -5 5 -8 10 -19 10 -25z"/>
<path d="M5231 727 c2 -1 13 -9 24 -17 19 -14 19 -14 6 3 -7 9 -18 17 -24 17
-6 0 -8 -1 -6 -3z"/>
<path d="M5330 700 c0 -5 5 -10 11 -10 5 0 7 5 4 10 -3 6 -8 10 -11 10 -2 0
-4 -4 -4 -10z"/>
<path d="M5256 676 c3 -8 13 -17 22 -21 13 -5 13 -2 -3 15 -21 24 -26 25 -19
6z"/>
<path d="M5334 654 c-1 -13 1 -24 5 -24 9 0 12 38 3 44 -4 2 -8 -7 -8 -20z"/>
<path d="M2605 662 c-5 -4 -17 -16 -25 -27 -11 -15 -7 -14 15 5 17 14 32 26
34 28 2 1 0 2 -5 2 -5 0 -13 -4 -19 -8z"/>
<path d="M1185 600 c-3 -5 -1 -10 4 -10 6 0 11 5 11 10 0 6 -2 10 -4 10 -3 0
-8 -4 -11 -10z"/>
<path d="M5360 580 c0 -5 5 -10 11 -10 5 0 7 5 4 10 -3 6 -8 10 -11 10 -2 0
-4 -4 -4 -10z"/>
<path d="M1171 544 c0 -11 3 -14 6 -6 3 7 2 16 -1 19 -3 4 -6 -2 -5 -13z"/>
<path d="M4480 491 c0 -11 30 -19 48 -14 6 3 10 9 6 14 -7 12 -54 12 -54 0z"/>
<path d="M152 463 c-38 -20 -50 -33 -29 -33 10 0 27 -9 39 -20 20 -18 23 -19
40 -4 9 9 20 26 24 38 4 11 12 24 18 28 21 14 -65 5 -92 -9z"/>
<path d="M3555 460 c3 -5 8 -10 11 -10 2 0 4 5 4 10 0 6 -5 10 -11 10 -5 0 -7
-4 -4 -10z"/>
<path d="M1474 369 c-5 -8 -7 -22 -6 -31 2 -13 -4 -18 -22 -18 -16 0 -26 -6
-26 -15 0 -9 -9 -15 -25 -15 -25 0 -31 -13 -19 -44 8 -20 24 -21 24 -1 0 8 9
15 20 15 11 0 20 7 20 15 0 8 7 15 15 15 22 0 18 -27 -5 -33 -39 -10 -21 -28
24 -25 33 2 46 8 50 21 2 10 -2 21 -10 24 -8 3 -14 10 -14 16 0 8 3 8 11 0 6
-6 17 -9 25 -6 16 6 7 33 -13 33 -7 0 -20 14 -27 31 -10 24 -15 28 -22 18z"/>
<path d="M1268 353 c7 -3 16 -2 19 1 4 3 -2 6 -13 5 -11 0 -14 -3 -6 -6z"/>
<path d="M86 275 c-18 -28 -36 -45 -48 -45 -27 0 -19 -34 9 -38 20 -3 37 23
81 121 2 4 0 7 -5 7 -5 0 -22 -20 -37 -45z"/>
<path d="M1336 273 c-6 -14 -5 -15 5 -6 7 7 10 15 7 18 -3 3 -9 -2 -12 -12z"/>
<path d="M1580 245 c0 -9 6 -12 15 -9 8 4 12 10 9 15 -8 14 -24 10 -24 -6z"/>
<path d="M3621 190 c0 -8 4 -24 9 -35 5 -13 9 -14 9 -5 0 8 -4 24 -9 35 -5 13
-9 14 -9 5z"/>
<path d="M1 97 c2 -58 4 -67 11 -47 6 14 16 40 24 58 20 46 18 57 -11 60 -26
2 -26 1 -24 -71z"/>
<path d="M2886 128 c-3 -13 -7 -39 -10 -58 -2 -19 -7 -43 -11 -52 -7 -17 2
-18 100 -18 l108 0 -27 25 c-15 14 -29 25 -31 25 -2 0 -19 14 -37 31 -18 17
-45 39 -60 50 l-27 20 -5 -23z"/>
<path d="M57 93 c-4 -3 -7 -11 -7 -17 0 -6 5 -5 12 2 6 6 9 14 7 17 -3 3 -9 2
-12 -2z"/>
<path d="M1560 71 c0 -5 9 -11 19 -14 14 -3 18 -1 14 9 -6 15 -33 19 -33 5z"/>
<path d="M1662 49 c18 -12 48 -11 48 0 0 5 -14 9 -31 9 -20 -1 -26 -4 -17 -9z"/>
<path d="M1640 30 c0 -5 7 -10 15 -10 8 0 15 5 15 10 0 6 -7 10 -15 10 -8 0
-15 -4 -15 -10z"/>
</g>
</svg>
